<svg xmlns="http://www.w3.org/2000/svg" viewBox="0 0 416.39 58.42"><g id="Capa_2" data-name="Capa 2"><g id="Capa_1-2" data-name="Capa 1"><g id="Capa_2-2" data-name="Capa 2"><g id="Capa_1-2-2" data-name="Capa 1-2"><path d="M192.36,32.37c3.75-5,7.33-9.76,10.86-14.54,3.73-5,7.41-10.14,11.1-15.22,1.06-1.45,2.4-2.45,4.26-2.07A41.23,41.23,0,0,1,225,2.25c2.41.93,2.94,3.85,2.57,6.73-.8,6.17-2.92,12-4.63,17.92-2.45,8.55-4.67,17.18-7,25.77a23.78,23.78,0,0,1-.85,2.72c-.66,1.71-1.29,2.16-3.08,1.92-2.5-.32-5.1-.33-7.29-1.9a6.06,6.06,0,0,1-2.55-6c.68-5.87,2.88-11.34,4.47-17,.52-1.87,1.07-3.73,1.58-5.6a5.62,5.62,0,0,0,0-1.16c-.84,1.15-1.54,2-2.13,2.91C201.5,35.63,197,42.73,192.4,49.79c-.87,1.34-1.91,2.55-2.85,3.83a1.68,1.68,0,0,1-2,.63c-2.9-.65-5.43-3-5.69-5.27-.16-1.34-.37-2.68-.45-4-.29-4.81-.52-9.63-.78-14.45l-.39-7.37H180c-.46,1.63-.93,3.26-1.38,4.89l-7.34,27.29a2.23,2.23,0,0,1-2,1.94,14.39,14.39,0,0,1-7.92-1.19c-2.62-1.32-4-4.83-3.1-8q2.22-8,4.64-15.94c2.73-8.93,5.61-17.81,8.26-26.77.71-2.42,2-3.65,4.45-3.8a21.33,21.33,0,0,1,11,1.86,7.67,7.67,0,0,1,4.53,6.9c.3,4.69.5,9.39.75,14.08C192.11,26.93,192.2,29.49,192.36,32.37Z"/><path d="M381.78,57.45a28.74,28.74,0,0,1-10.33-1.83,14.87,14.87,0,0,1-1.74-.77c-1.92-1-2.19-1.54-1.63-3.63,2.34-8.7,4.78-17.37,7-26.09.92-3.54,1.51-7.17,2.1-10.79a12.86,12.86,0,0,0-.77-6.83,1.49,1.49,0,0,1,.47-1.9,9.85,9.85,0,0,1,2.2-1.42C385.55,1.53,392.23,0,399.28.78c8.74,1,14.87,6.4,16.56,14.57a30.59,30.59,0,0,1-.65,14.23A42.74,42.74,0,0,1,405,48.15c-5.47,5.9-12.42,8.46-20.24,9.1C383.77,57.38,382.77,57.4,381.78,57.45ZM400.7,19.82c.39-3.32-1-5.65-3.79-7.31-2.41-1.43-2.84-1.39-3.73,1.24-2.23,6.64-4.43,13.29-6.5,20-1.12,3.65-2,7.38-2.88,11.09-.31,1.29.16,1.66,1.4,1.27a14,14,0,0,0,7.05-4.28,36.43,36.43,0,0,0,8.45-22Z"/><path d="M152.77,57.62c-3.68-.56-7.29-.72-10.45-2.61-2.38-1.43-3.74-3.41-3.47-6.4.31-3.36.38-6.74.56-10.25h-8.93c-.25,0-.6.43-.73.73q-3,6.85-6,13.74a12.45,12.45,0,0,1-1,1.87c-1.33,2.1-2.69,2.72-5.16,2.08a24.7,24.7,0,0,1-4.78-1.69c-3-1.47-3.51-4.15-2.75-7.24a77.89,77.89,0,0,1,2.87-8.28,26.17,26.17,0,0,0,2-10.18,12.67,12.67,0,0,1,.39-3.19c.38-1.63,1-2.13,2.93-1.7,2.14.48,3.37-.56,4.4-2,3-4.43,6-8.9,9-13.37,1.78-2.68,3.48-5.41,5.25-8.1.2-.29.57-.65.88-.66C141.9.14,146,.14,149.78,2c5.73,2.78,8.14,8.62,7.72,14.18-.21,2.66-.36,5.32-.62,8-.35,3.6-.75,7.19-1.17,10.78-.38,3.33-.78,6.64-1.22,9.93C154,49.08,153.36,53.28,152.77,57.62ZM135.66,27.84a28.39,28.39,0,0,0,3.17.43c1.75.05,2.31-.34,2.73-2,.48-1.88.86-3.79,1.17-5.7s.49-3.87.73-5.81a71.74,71.74,0,0,0-7.8,13.12Z"/><path d="M349.11,38.41h-8.52c-.29,0-.69.41-.83.72-2,4.53-4,9.11-6,13.62-.71,1.55-1.47,3.23-3.15,4a4.58,4.58,0,0,1-2.91.46,36.07,36.07,0,0,1-5.64-2.54,3.42,3.42,0,0,1-1.73-3.14,27.6,27.6,0,0,1,3.27-14.19,16.85,16.85,0,0,0,1.49-4.9,25.4,25.4,0,0,0-.15-3.9,9.47,9.47,0,0,1,.38-2.42c.41-1.49,1.16-2.08,2.6-1.59,2.41.81,3.78-.55,4.87-2.18C337,16.15,341,9.86,345.06,3.6a20.66,20.66,0,0,0,1.28-2.1A2.26,2.26,0,0,1,348.87.24c1.92.21,3.86.27,5.77.51,6.2.76,11.36,4.52,12.78,11.18a23.26,23.26,0,0,1,0,8.32c-.31,2.18-.47,4.38-.75,6.57-.36,2.8-.79,5.59-1.16,8.39-.35,2.61-.65,5.22-1,7.83s-.81,5.51-1.16,8.28c-.22,1.68-.36,3.37-.51,5-.07.87-.19,1.36-1.36,1.06-1.7-.44-3.52-.41-5.21-.85a10,10,0,0,1-5.93-3.52,4.85,4.85,0,0,1-.9-2.46c-.17-3.61-.2-7.24-.28-10.86Zm-3.49-10.54a28.18,28.18,0,0,0,3,.44c2,.07,2.78-.53,3.08-2.39.57-3.65,1.08-7.31,1.61-11a76.07,76.07,0,0,0-7.74,13Z"/><path d="M69,38.21c-1.25,0-2.43.09-3.61.16-1.6.1-3.19.26-4.79.3a1.69,1.69,0,0,0-1.76,1.21C56.88,44.44,55,49,52.74,53.5s-3.87,4.77-8.3,2.75c-5.06-2.32-6.37-5.07-4.64-10.36.82-2.52,2-5,3-7.39a15,15,0,0,0,1.62-7.84,13.28,13.28,0,0,1,.91-4.75,1.76,1.76,0,0,1,2.1-1.29l.29.1a3,3,0,0,0,3.5-1.16c1.87-2.49,3.75-5,5.48-7.56,3.24-4.85,6.38-9.75,9.53-14.66A1.69,1.69,0,0,1,68,.41c2.58.22,5.23.09,7.72.66C82.77,2.72,86.3,7.19,86.6,14.43c.22,5.5-.56,10.92-1.27,16.35-1,7.63-1.89,15.28-2.89,22.92-.38,2.93-1.16,3.51-4.11,3.38a13.11,13.11,0,0,1-7.2-2.63,6.77,6.77,0,0,1-2.82-4.79c-.47-3.55.23-7,.61-10.49A5.55,5.55,0,0,0,69,38.21Zm3.85-23.7-.53-.19-7.83,14h4.21a2.32,2.32,0,0,0,2.38-2.09c.4-2.19.77-4.38,1.11-6.59C72.49,18,72.67,16.23,72.89,14.51Z"/><path d="M276.31,0a19.44,19.44,0,0,1,11.56,3.43,8.69,8.69,0,0,1,3.85,7.42c0,1,0,1.92-.09,2.87-.38,3.89-3.69,5.43-6.79,6.19a7.38,7.38,0,0,1-5.31-.7A3.29,3.29,0,0,1,277.64,15c0-.07.05-.13.07-.19a4.09,4.09,0,0,0-.89-4.49c-.61-.71-1-.61-1.65-.1a5.34,5.34,0,0,0-1.74,6.73c1.63,3.68,3.59,7.22,5.32,10.86,1.28,2.71,2.94,5.38,3.53,8.25,2.18,10.53-2.6,18.66-13.22,21.48a22.89,22.89,0,0,1-16.95-1.65c-3.55-1.87-6.49-4.46-7.27-8.65-1.24-6.67,3.24-12.14,10.15-11a19.75,19.75,0,0,1,2.67.55c1.94.6,2.7,2.27,2.53,4.22-.05.59-.14,1.18-.2,1.77-.22,2.34.29,2.95,2.75,3.94a2.89,2.89,0,0,0,2.2-.4,9.72,9.72,0,0,0,2-2,2,2,0,0,0,.39-2.38c-1.46-3.25-2.93-6.5-4.3-9.79-1.63-3.9-3.35-7.79-4.67-11.8-2.17-6.59,1.51-13.29,6.17-16.66A18.87,18.87,0,0,1,276.31,0Z"/><path d="M17.79,57.25H5a1.5,1.5,0,0,1-1.55-.82C2.55,54.81,1.6,53.24.78,51.61A7.68,7.68,0,0,1,.4,45.79Q4,33.66,7.58,21.49q2.49-8.49,4.85-17c.77-2.73,1.15-3.07,4-3.07a16.74,16.74,0,0,1,8.29,2,3.27,3.27,0,0,1,2,3.06A31,31,0,0,1,26,13.33c-2.31,8.12-4.85,16.17-7.31,24.25-.51,1.68-1,3.36-1.56,5-.33,1-.15,1.6,1,1.68,2.47.17,4.94.32,7.4.57a40.32,40.32,0,0,1,5.9.85c3.1.79,4.38,2.65,4.43,5.84V52c0,3.9-.77,4.86-4.7,5-4.43.16-8.87,0-13.3,0Z"/><path d="M294.79,48.62a38.65,38.65,0,0,1,1.93-10.76c2.17-7.28,4.39-14.54,6.58-21.81.52-1.71.34-2.14-1.3-2.78-.85-.33-1.75-.52-2.61-.81a4.71,4.71,0,0,1-3.56-4.9c0-1.67.18-3.34.23-5,0-.83.55-.82,1.15-.83,5.27,0,10.55.12,15.82-.08,5.64-.21,11.28-.72,16.92-1.1h1c2.85-.06,3.43.69,2.66,3.5a10.24,10.24,0,0,1-4,5.35c-2.65,2.07-5.83,3-8.93,4.08a2.58,2.58,0,0,0-1.87,2c-3.11,11.17-6.3,22.31-9.42,33.47-.7,2.52-1.2,5.09-1.84,7.62-.09.32-.48.77-.77.8a11.76,11.76,0,0,1-8.54-2.21C295.76,53.25,294.58,50.87,294.79,48.62Z"/><path d="M223.58,50.28c.54-2.48.92-4.73,1.52-6.91Q230.68,23,236.36,2.71c.67-2.39,1.08-2.57,3.54-2a16.34,16.34,0,0,1,8,3.81,4.13,4.13,0,0,1,1.37,4c-.77,3.58-1.55,7.17-2.52,10.7-3.07,11.06-6.24,22.09-9.35,33.14a18.81,18.81,0,0,0-.64,2.79A1.91,1.91,0,0,1,235.07,57c-3.88.68-7.36-.21-10-3.22C224.25,52.87,224,51.4,223.58,50.28Z"/></g></g></g></g></svg>