<svg xmlns="http://www.w3.org/2000/svg" viewBox="0 0 527.85 276.34"><g id="Capa_2" data-name="Capa 2"><g id="Capa_1-2" data-name="Capa 1"><g id="Capa_2-2" data-name="Capa 2"><g id="Capa_1-2-2" data-name="Capa 1-2"><path d="M.33,78.41H527.85V198c-.4,0-.79.06-1.17.06l-75.44.15-61.06.1q-39.45.06-78.92.16l-48.09.07q-52.06.09-104.11.14-64.17,0-128.34-.09c-9.72,0-19.43-.27-29.14-.38-1.06,0-1.43-.31-1.43-1.43,0-4.19-.09-8.39-.11-12.58,0-9.44-.08-18.87,0-28.3q.07-29.79.23-59.59,0-8.34.11-16.67Zm519.17,5.4H8.82V193.65H519.5Z"/><path d="M351.83,59.33c-1-.84-2-1.65-2.94-2.53-1.89-1.73-3.7-3.54-5.61-5.24-5.25-4.66-11.55-7-18.38-8-6.4-1-12.82-2-19.31-1.49-5.45.4-10.88,1.16-16.32,1.73-8.45.89-16.9,2-25.38,2.53-7.16.47-14.24-1-21.31-2A152.74,152.74,0,0,0,207.09,43c-9.31.83-17.27,4.89-24.45,10.63-1.81,1.45-3.46,3.09-5.19,4.63-.67.6-1.36,1.19-2,1.78l-.26-.22c.55-.74,1.06-1.51,1.66-2.22a60.33,60.33,0,0,1,29-19.55c7.22-2.22,14.6-2.57,22.05-2.19,7.7.4,15.12,2.42,22.62,4,3,.63,6,1.35,9,1.85s4-.18,4.79-3.21a34,34,0,0,0,.86-4.82c.12-1.16-.52-1.67-1.55-1.23-5.12,2.18-10.29,1-15.45.35a32.9,32.9,0,0,1-14.71-6.3C228,22.63,223.64,18,221,11.84c-2-4.81-.42-8.62,4.38-10.13a17.68,17.68,0,0,1,2.8-.61A30.26,30.26,0,0,1,241,2.32c7.51,2.27,14.44,5.7,20.08,11.24,2.23,2.18,3.93,4.9,5.86,7.38.45.6.83,1.25,1.4,2.09.24-.67.41-1.13.58-1.59,2.11-6,4.2-12,6.35-17.92a23.39,23.39,0,0,1,1.51-3c.31-.59.76-.69,1.26-.25l9.06,8c.63.55.34,1,0,1.56-2.75,4.26-5.54,8.49-8.25,12.78q-5,7.89-9.85,15.85a22.16,22.16,0,0,0-1.25,2.77l.25.32c1.3-.26,2.61-.51,3.91-.78,6.4-1.36,12.75-3,19.2-4a80,80,0,0,1,30.13,1.12c11.1,2.43,20,8.53,27.48,16.87,1,1.12,1.93,2.34,2.87,3.52a8.39,8.39,0,0,1,.5.81Z"/><path d="M162.79,220.74c.68.8,1.39,1.58,2,2.41,2.09,2.75,4,5.65,6.27,8.26,3.58,4.13,7.22,8.22,11.11,12.05,7.07,7,14.78,13.06,23.94,17.15a59.82,59.82,0,0,0,15.44,4.53,114.71,114.71,0,0,0,18.24,1.1c8.11,0,16.21-.41,24.32-.55a74.26,74.26,0,0,1,14.57,1.41,71.38,71.38,0,0,0,16.89,1.21,73.27,73.27,0,0,0,31.27-8.72c3.41-1.85,6.55-4.19,9.94-6.08,5.25-2.93,8.89-7.58,12.78-11.89,4.13-4.57,7.78-9.58,11.58-14.44a45,45,0,0,0,2.61-4c.11-.17.19-.4.34-.49.39-.17.79-.33,1.2-.47a2.3,2.3,0,0,1-.14,1.19c-4,5.87-7.9,11.85-12.18,17.52a85.85,85.85,0,0,1-9.12,10.12,111.84,111.84,0,0,1-26.43,19,82.55,82.55,0,0,1-11.36,4.79,31.28,31.28,0,0,1-8.19,1.37c-4.18.22-8.37.11-12.56.05a16.28,16.28,0,0,1-7.5-2.09c-4.12-2.22-8.56-2.55-13.08-2.53a22.27,22.27,0,0,0-8.4,1.42,18.64,18.64,0,0,1-5.72,1c-3.67.21-7.35.34-11,.25a67.11,67.11,0,0,1-23.79-4.79c-8.26-3.35-16.35-7.13-23.41-12.71-3.17-2.52-6.18-5.25-9.27-7.87-7.14-6-12-13.88-17-21.59-1.26-1.93-2.37-3.95-3.54-5.94a1.87,1.87,0,0,1-.17-.52Z"/><path d="M248.23,141.77c3.75-5,7.33-9.76,10.86-14.54,3.73-5,7.41-10.14,11.1-15.22,1.06-1.45,2.4-2.45,4.26-2.07a41.54,41.54,0,0,1,6.39,1.71c2.41.93,2.94,3.85,2.57,6.73-.8,6.17-2.92,12-4.63,17.92-2.45,8.55-4.67,17.18-7,25.77-.24.92-.52,1.83-.85,2.72-.66,1.71-1.29,2.16-3.08,1.92-2.5-.32-5.1-.33-7.29-1.9a6,6,0,0,1-2.55-6c.68-5.87,2.88-11.34,4.47-17,.52-1.87,1.07-3.73,1.58-5.6a7.49,7.49,0,0,0,0-1.16c-.84,1.15-1.54,2-2.13,2.91-4.56,7.07-9.09,14.17-13.66,21.23-.87,1.34-1.91,2.55-2.85,3.83a1.69,1.69,0,0,1-2,.63c-2.9-.65-5.43-3-5.69-5.27-.16-1.34-.37-2.68-.45-4-.29-4.81-.52-9.63-.78-14.45l-.39-7.37h-.26c-.46,1.63-.93,3.26-1.38,4.89l-7.34,27.29a2.24,2.24,0,0,1-2,1.94,14.37,14.37,0,0,1-7.92-1.19c-2.62-1.32-4-4.83-3.1-8q2.2-8,4.64-15.94c2.73-8.93,5.61-17.81,8.26-26.77.71-2.42,2-3.65,4.45-3.8a21.47,21.47,0,0,1,11,1.86,7.71,7.71,0,0,1,4.53,6.9c.3,4.69.5,9.39.75,14.08C248,136.33,248.07,138.89,248.23,141.77Z"/><path d="M437.65,166.85A28.67,28.67,0,0,1,427.32,165a12.27,12.27,0,0,1-1.74-.77c-1.92-1-2.19-1.54-1.63-3.63,2.34-8.7,4.78-17.37,7-26.09.92-3.54,1.51-7.17,2.1-10.79a13,13,0,0,0-.77-6.83,1.47,1.47,0,0,1,.47-1.9,9.75,9.75,0,0,1,2.2-1.42c6.47-2.66,13.15-4.21,20.2-3.41,8.74,1,14.87,6.4,16.56,14.57a30.85,30.85,0,0,1-.65,14.23,43,43,0,0,1-10.21,18.57c-5.47,5.9-12.42,8.46-20.24,9.1C439.64,166.78,438.64,166.8,437.65,166.85Zm18.92-37.63c.39-3.32-1-5.65-3.79-7.31-2.41-1.43-2.84-1.39-3.73,1.24-2.23,6.64-4.43,13.29-6.5,20-1.12,3.65-2,7.38-2.88,11.09-.31,1.29.16,1.66,1.4,1.27a14.12,14.12,0,0,0,7.05-4.28,36.56,36.56,0,0,0,8.45-22Z"/><path d="M208.64,167c-3.68-.56-7.29-.72-10.45-2.61-2.38-1.43-3.74-3.41-3.47-6.4.31-3.36.38-6.74.56-10.25h-8.93c-.25,0-.6.43-.73.73l-6,13.74a13.94,13.94,0,0,1-1,1.87c-1.33,2.1-2.69,2.72-5.16,2.08a23.83,23.83,0,0,1-4.78-1.69c-3-1.47-3.51-4.15-2.75-7.24A73.66,73.66,0,0,1,168.8,149a26.1,26.1,0,0,0,2-10.18,12.28,12.28,0,0,1,.39-3.19c.38-1.63,1-2.13,2.93-1.7,2.14.48,3.37-.56,4.4-2,3-4.43,6-8.9,9-13.37,1.78-2.68,3.48-5.41,5.25-8.1.2-.29.57-.65.88-.66,4.12-.23,8.21-.23,12,1.63,5.73,2.78,8.14,8.62,7.72,14.18-.21,2.66-.36,5.32-.62,8-.35,3.6-.75,7.19-1.17,10.78q-.57,5-1.22,9.93C209.82,158.48,209.23,162.68,208.64,167Zm-17.11-29.78a25.7,25.7,0,0,0,3.17.43c1.75.05,2.31-.34,2.73-2,.48-1.88.86-3.79,1.17-5.7s.49-3.87.73-5.81a70.63,70.63,0,0,0-7.8,13.12Z"/><path d="M405,147.81h-8.52c-.29,0-.69.41-.83.72-2,4.53-4,9.11-6,13.62-.71,1.55-1.47,3.23-3.15,4a4.6,4.6,0,0,1-2.91.46,35.25,35.25,0,0,1-5.64-2.54,3.38,3.38,0,0,1-1.73-3.14,27.4,27.4,0,0,1,3.27-14.19,17.16,17.16,0,0,0,1.49-4.9,28.26,28.26,0,0,0-.15-3.9,8.67,8.67,0,0,1,.38-2.42c.41-1.49,1.16-2.08,2.6-1.59,2.41.81,3.78-.55,4.87-2.18,4.16-6.2,8.2-12.49,12.27-18.75a22.17,22.17,0,0,0,1.28-2.1,2.25,2.25,0,0,1,2.53-1.26c1.92.21,3.86.27,5.77.51,6.2.76,11.36,4.52,12.78,11.18a23.26,23.26,0,0,1,0,8.32c-.31,2.18-.47,4.38-.75,6.57-.36,2.8-.79,5.59-1.16,8.39-.35,2.61-.65,5.22-1,7.83-.37,2.76-.81,5.51-1.16,8.28-.22,1.68-.36,3.37-.51,5.05-.07.87-.19,1.36-1.36,1.06-1.7-.44-3.52-.41-5.21-.85a9.94,9.94,0,0,1-5.93-3.52,4.67,4.67,0,0,1-.9-2.46c-.17-3.61-.2-7.24-.28-10.86Zm-3.49-10.54a25.22,25.22,0,0,0,3,.44c2,.07,2.78-.53,3.08-2.39.57-3.65,1.08-7.31,1.61-11a75.43,75.43,0,0,0-7.74,13Z"/><path d="M124.91,147.61c-1.25,0-2.43.09-3.61.16-1.6.1-3.19.26-4.79.3a1.69,1.69,0,0,0-1.76,1.21c-2,4.56-3.92,9.16-6.14,13.62s-3.87,4.77-8.3,2.75c-5.06-2.32-6.37-5.07-4.64-10.36.82-2.52,2-5,3-7.39a15.21,15.21,0,0,0,1.62-7.84,12.9,12.9,0,0,1,.91-4.75,1.74,1.74,0,0,1,2.09-1.29l.3.1a3,3,0,0,0,3.5-1.16c1.87-2.49,3.75-5,5.48-7.56,3.24-4.85,6.38-9.75,9.53-14.66a1.68,1.68,0,0,1,1.73-.93c2.58.22,5.23.09,7.72.66,7.09,1.65,10.62,6.12,10.92,13.36.22,5.5-.56,10.92-1.27,16.35-1,7.63-1.89,15.28-2.89,22.92-.38,2.93-1.16,3.51-4.11,3.38a13.05,13.05,0,0,1-7.2-2.63,6.68,6.68,0,0,1-2.82-4.79c-.47-3.55.23-7,.61-10.49A5.55,5.55,0,0,0,124.91,147.61Zm3.85-23.7-.53-.19-7.83,14h4.21a2.32,2.32,0,0,0,2.38-2.09q.6-3.27,1.11-6.59C128.36,127.35,128.54,125.63,128.76,123.91Z"/><path d="M332.18,109.41a19.48,19.48,0,0,1,11.56,3.43,8.75,8.75,0,0,1,3.85,7.42c0,1,0,1.92-.09,2.87-.38,3.89-3.69,5.43-6.79,6.19a7.38,7.38,0,0,1-5.31-.7,3.28,3.28,0,0,1-1.9-4.26,1.54,1.54,0,0,1,.08-.19,4.11,4.11,0,0,0-.89-4.49c-.61-.71-1-.61-1.65-.1a5.32,5.32,0,0,0-1.74,6.73c1.63,3.68,3.59,7.22,5.32,10.86,1.28,2.71,2.94,5.38,3.53,8.25,2.18,10.53-2.6,18.66-13.22,21.48A22.79,22.79,0,0,1,308,165.25c-3.55-1.87-6.49-4.46-7.27-8.65-1.24-6.67,3.24-12.14,10.15-11a22.18,22.18,0,0,1,2.67.55c1.94.6,2.7,2.27,2.53,4.22-.05.59-.14,1.18-.2,1.77-.22,2.34.29,3,2.75,3.94a2.85,2.85,0,0,0,2.2-.4,10.24,10.24,0,0,0,2-2,2,2,0,0,0,.39-2.38c-1.46-3.25-2.93-6.5-4.3-9.79-1.63-3.9-3.35-7.79-4.67-11.8-2.17-6.59,1.51-13.29,6.17-16.66A18.89,18.89,0,0,1,332.18,109.41Z"/><path d="M73.66,166.65H60.83a1.49,1.49,0,0,1-1.55-.82c-.86-1.62-1.81-3.19-2.63-4.82a7.59,7.59,0,0,1-.38-5.82q3.61-12.12,7.18-24.3,2.47-8.49,4.85-17c.77-2.73,1.15-3.07,4-3.07a16.77,16.77,0,0,1,8.29,2,3.31,3.31,0,0,1,2,3.06,31.54,31.54,0,0,1-.76,6.85C79.52,130.85,77,138.9,74.52,147c-.51,1.68-1,3.36-1.56,5-.33,1-.15,1.6,1,1.68,2.47.17,4.94.32,7.4.57a40.71,40.71,0,0,1,5.9.85c3.1.79,4.38,2.65,4.43,5.84v.48c0,3.9-.77,4.86-4.7,5-4.43.16-8.87,0-13.3,0Z"/><path d="M350.66,158a37.94,37.94,0,0,1,1.93-10.76c2.17-7.28,4.39-14.54,6.58-21.81.52-1.71.34-2.14-1.3-2.78-.85-.33-1.75-.52-2.61-.81a4.69,4.69,0,0,1-3.56-4.9c0-1.67.18-3.34.23-5,0-.83.55-.82,1.15-.83,5.27,0,10.55.12,15.82-.08,5.64-.21,11.28-.72,16.92-1.1h1c2.85-.06,3.43.69,2.66,3.5a10.34,10.34,0,0,1-4,5.35c-2.65,2.07-5.83,3-8.93,4.08a2.55,2.55,0,0,0-1.87,2c-3.11,11.17-6.3,22.31-9.42,33.47-.7,2.52-1.2,5.09-1.84,7.62-.09.32-.48.77-.77.8a11.73,11.73,0,0,1-8.54-2.21C351.63,162.65,350.45,160.27,350.66,158Z"/><path d="M279.45,159.68c.54-2.48.92-4.73,1.52-6.91q5.58-20.34,11.26-40.66c.67-2.39,1.08-2.57,3.54-2a16.42,16.42,0,0,1,8,3.81,4.15,4.15,0,0,1,1.37,4c-.77,3.58-1.55,7.17-2.52,10.7-3.07,11.06-6.24,22.09-9.35,33.14a17.89,17.89,0,0,0-.64,2.79,1.93,1.93,0,0,1-1.69,1.88c-3.88.68-7.36-.21-10-3.22C280.12,162.27,279.9,160.8,279.45,159.68Z"/></g></g></g></g></svg>